<svg id="visual" viewBox="0 0 960 200" width="960" height="200" xmlns="http://www.w3.org/2000/svg" xmlns:xlink="http://www.w3.org/1999/xlink" version="1.1"><rect x="0" y="0" width="960" height="200" fill="#090A0C"></rect><path d="M0 76L20 73.5C40 71 80 66 120 63.2C160 60.3 200 59.7 240 61.5C280 63.3 320 67.7 360 72C400 76.3 440 80.7 480 76.2C520 71.7 560 58.3 600 52.5C640 46.7 680 48.3 720 55.7C760 63 800 76 840 84C880 92 920 95 940 96.5L960 98L960 201L940 201C920 201 880 201 840 201C800 201 760 201 720 201C680 201 640 201 600 201C560 201 520 201 480 201C440 201 400 201 360 201C320 201 280 201 240 201C200 201 160 201 120 201C80 201 40 201 20 201L0 201Z" fill="#377fec"></path><path d="M0 99L20 96.5C40 94 80 89 120 83.8C160 78.7 200 73.3 240 70.8C280 68.3 320 68.7 360 75.3C400 82 440 95 480 102.3C520 109.7 560 111.3 600 106.2C640 101 680 89 720 89.5C760 90 800 103 840 100.7C880 98.3 920 80.7 940 71.8L960 63L960 201L940 201C920 201 880 201 840 201C800 201 760 201 720 201C680 201 640 201 600 201C560 201 520 201 480 201C440 201 400 201 360 201C320 201 280 201 240 201C200 201 160 201 120 201C80 201 40 201 20 201L0 201Z" fill="#2c72e2"></path><path d="M0 92L20 98.5C40 105 80 118 120 119.7C160 121.3 200 111.7 240 105.7C280 99.7 320 97.3 360 101C400 104.7 440 114.3 480 115.5C520 116.7 560 109.3 600 110C640 110.7 680 119.3 720 119.5C760 119.7 800 111.3 840 113.3C880 115.3 920 127.7 940 133.8L960 140L960 201L940 201C920 201 880 201 840 201C800 201 760 201 720 201C680 201 640 201 600 201C560 201 520 201 480 201C440 201 400 201 360 201C320 201 280 201 240 201C200 201 160 201 120 201C80 201 40 201 20 201L0 201Z" fill="#2066d7"></path><path d="M0 130L20 131.2C40 132.3 80 134.7 120 136.3C160 138 200 139 240 139.8C280 140.7 320 141.3 360 144.5C400 147.7 440 153.3 480 155.5C520 157.7 560 156.3 600 150.7C640 145 680 135 720 133.5C760 132 800 139 840 145C880 151 920 156 940 158.5L960 161L960 201L940 201C920 201 880 201 840 201C800 201 760 201 720 201C680 201 640 201 600 201C560 201 520 201 480 201C440 201 400 201 360 201C320 201 280 201 240 201C200 201 160 201 120 201C80 201 40 201 20 201L0 201Z" fill="#1259cd"></path><path d="M0 178L20 174.2C40 170.3 80 162.7 120 162C160 161.3 200 167.7 240 171.3C280 175 320 176 360 172C400 168 440 159 480 154.8C520 150.7 560 151.3 600 153.5C640 155.7 680 159.3 720 160.8C760 162.3 800 161.7 840 161.5C880 161.3 920 161.7 940 161.8L960 162L960 201L940 201C920 201 880 201 840 201C800 201 760 201 720 201C680 201 640 201 600 201C560 201 520 201 480 201C440 201 400 201 360 201C320 201 280 201 240 201C200 201 160 201 120 201C80 201 40 201 20 201L0 201Z" fill="#004dc2"></path></svg>